<svg width="24" height="24" viewBox="0 0 24 24" fill="none" xmlns="http://www.w3.org/2000/svg">
<path fill-rule="evenodd" clip-rule="evenodd" d="M17.6 4H6.4C5.07452 4 4 5.07452 4 6.4V17.6C4 18.9255 5.07452 20 6.4 20H17.6C18.9255 20 20 18.9255 20 17.6V6.4C20 5.07452 18.9255 4 17.6 4ZM10.4 5.6H13.6V8.104L12.44 7.304C12.173 7.12818 11.827 7.12818 11.56 7.304L10.4 8.104V5.6ZM18.4 17.6C18.4 18.0418 18.0418 18.4 17.6 18.4H6.4C5.95817 18.4 5.6 18.0418 5.6 17.6V6.4C5.6 5.95817 5.95817 5.6 6.4 5.6H8.8V9.6C8.80079 9.89488 8.96372 10.1654 9.224 10.304C9.47862 10.4347 9.78369 10.4195 10.024 10.264L12 8.96L13.96 10.264C14.2051 10.4254 14.5189 10.4397 14.7777 10.3011C15.0364 10.1626 15.1985 9.89349 15.2 9.6V5.6H17.6C18.0418 5.6 18.4 5.95817 18.4 6.4V17.6Z" fill="#818285"/>
</svg>
