<svg width="16" height="16" viewBox="0 0 16 16" xmlns="http://www.w3.org/2000/svg">
	<path fill-rule="evenodd" clip-rule="evenodd" d="M8 4C7.55817 4 7.2 4.35817 7.2 4.8V8C7.2 8.44183 7.55817 8.8 8 8.8C8.44183 8.8 8.8 8.44183 8.8 8V4.8C8.8 4.35817 8.44183 4 8 4ZM8.736 10.896C8.71849 10.845 8.69428 10.7966 8.664 10.752L8.568 10.632C8.33795 10.405 7.99392 10.3387 7.696 10.464C7.59905 10.5045 7.50976 10.5613 7.432 10.632C7.28225 10.783 7.19877 10.9874 7.2 11.2C7.20126 11.3045 7.22301 11.4078 7.264 11.504C7.33674 11.705 7.49502 11.8633 7.696 11.936C7.88963 12.0216 8.11037 12.0216 8.304 11.936C8.50498 11.8633 8.66326 11.705 8.736 11.504C8.77699 11.4078 8.79874 11.3045 8.8 11.2C8.80393 11.1467 8.80393 11.0933 8.8 11.04C8.78623 10.989 8.76464 10.9404 8.736 10.896ZM8 0C3.58172 0 0 3.58172 0 8C0 12.4183 3.58172 16 8 16C12.4183 16 16 12.4183 16 8C16 5.87827 15.1571 3.84344 13.6569 2.34315C12.1566 0.842855 10.1217 0 8 0ZM8 14.4C4.46538 14.4 1.6 11.5346 1.6 8C1.6 4.46538 4.46538 1.6 8 1.6C11.5346 1.6 14.4 4.46538 14.4 8C14.4 9.69739 13.7257 11.3253 12.5255 12.5255C11.3253 13.7257 9.69739 14.4 8 14.4Z" />
</svg>
