<svg width="16" height="16" viewBox="0 0 16 16" xmlns="http://www.w3.org/2000/svg">
	<path fill-rule="evenodd" clip-rule="evenodd" d="M8 0C3.58172 0 0 3.58172 0 8C0 12.4183 3.58172 16 8 16C12.4183 16 16 12.4183 16 8C16 3.58172 12.4183 0 8 0ZM1.37143 8C1.37143 4.33914 4.33914 1.37143 8 1.37143C11.6609 1.37143 14.6286 4.33914 14.6286 8C14.6286 11.6609 11.6609 14.6286 8 14.6286C4.33914 14.6286 1.37143 11.6609 1.37143 8ZM11.2277 6.6563C11.4955 6.38851 11.4955 5.95434 11.2277 5.68656C10.9599 5.41877 10.5258 5.41877 10.258 5.68656L7.08571 8.85882L5.74202 7.51513C5.47423 7.24734 5.04006 7.24734 4.77227 7.51513C4.50448 7.78292 4.50448 8.21708 4.77227 8.48487L6.60084 10.3134C6.86863 10.5812 7.3028 10.5812 7.57059 10.3134L11.2277 6.6563Z" />
</svg>
