<svg width="24" height="24" viewBox="0 0 24 24" xmlns="http://www.w3.org/2000/svg">
	<path fill-rule="evenodd" clip-rule="evenodd" d="M12 13.6C12.4418 13.6 12.8 13.2418 12.8 12.8C12.8 12.3582 12.4418 12 12 12C11.5582 12 11.2 12.3582 11.2 12.8C11.2 13.2418 11.5582 13.6 12 13.6ZM16 13.6C16.4418 13.6 16.8 13.2418 16.8 12.8C16.8 12.3582 16.4418 12 16 12C15.5582 12 15.2 12.3582 15.2 12.8C15.2 13.2418 15.5582 13.6 16 13.6ZM12 16.8C12.4418 16.8 12.8 16.4418 12.8 16C12.8 15.5582 12.4418 15.2 12 15.2C11.5582 15.2 11.2 15.5582 11.2 16C11.2 16.4418 11.5582 16.8 12 16.8ZM16 16.8C16.4418 16.8 16.8 16.4418 16.8 16C16.8 15.5582 16.4418 15.2 16 15.2C15.5582 15.2 15.2 15.5582 15.2 16C15.2 16.4418 15.5582 16.8 16 16.8ZM8 13.6C8.44183 13.6 8.8 13.2418 8.8 12.8C8.8 12.3582 8.44183 12 8 12C7.55817 12 7.2 12.3582 7.2 12.8C7.2 13.2418 7.55817 13.6 8 13.6ZM17.6 5.6H16.8V4.8C16.8 4.35817 16.4418 4 16 4C15.5582 4 15.2 4.35817 15.2 4.8V5.6H8.8V4.8C8.8 4.35817 8.44183 4 8 4C7.55817 4 7.2 4.35817 7.2 4.8V5.6H6.4C5.07452 5.6 4 6.67452 4 8V17.6C4 18.9255 5.07452 20 6.4 20H17.6C18.9255 20 20 18.9255 20 17.6V8C20 6.67452 18.9255 5.6 17.6 5.6ZM18.4 17.6C18.4 18.0418 18.0418 18.4 17.6 18.4H6.4C5.95817 18.4 5.6 18.0418 5.6 17.6V10.4H18.4V17.6ZM18.4 8.8H5.6V8C5.6 7.55817 5.95817 7.2 6.4 7.2H17.6C18.0418 7.2 18.4 7.55817 18.4 8V8.8ZM8 16.8C8.44183 16.8 8.8 16.4418 8.8 16C8.8 15.5582 8.44183 15.2 8 15.2C7.55817 15.2 7.2 15.5582 7.2 16C7.2 16.4418 7.55817 16.8 8 16.8Z" />
</svg>
