<svg width="16" height="16" viewBox="0 0 16 16" xmlns="http://www.w3.org/2000/svg">
	<path fill-rule="evenodd" clip-rule="evenodd" d="M7.432 10.632C7.3976 10.67 7.36554 10.7101 7.336 10.752C7.30572 10.7966 7.28151 10.845 7.264 10.896C7.24093 10.9413 7.22476 10.9899 7.216 11.04C7.21207 11.0933 7.21207 11.1467 7.216 11.2C7.2133 11.3049 7.23521 11.4091 7.28 11.504C7.35274 11.705 7.51102 11.8633 7.712 11.936C7.90563 12.0216 8.12637 12.0216 8.32 11.936C8.52098 11.8633 8.67926 11.705 8.752 11.504C8.78752 11.4067 8.80383 11.3035 8.8 11.2C8.80123 10.9874 8.71775 10.783 8.568 10.632C8.41779 10.4805 8.21331 10.3954 8 10.3954C7.78669 10.3954 7.58221 10.4805 7.432 10.632ZM8 0C3.58172 0 0 3.58172 0 8C0 12.4183 3.58172 16 8 16C12.4183 16 16 12.4183 16 8C16 5.87827 15.1571 3.84344 13.6569 2.34315C12.1566 0.842855 10.1217 0 8 0ZM8 14.4C4.46538 14.4 1.6 11.5346 1.6 8C1.6 4.46538 4.46538 1.6 8 1.6C11.5346 1.6 14.4 4.46538 14.4 8C14.4 9.69739 13.7257 11.3253 12.5255 12.5255C11.3253 13.7257 9.69739 14.4 8 14.4ZM8 4C7.14201 3.99945 6.34899 4.45696 5.92 5.2C5.76235 5.44799 5.75335 5.76245 5.89656 6.01905C6.03977 6.27565 6.31213 6.43308 6.60596 6.42911C6.89979 6.42513 7.16779 6.26038 7.304 6C7.44747 5.75149 7.71305 5.59886 8 5.6C8.44183 5.6 8.8 5.95817 8.8 6.4C8.8 6.84183 8.44183 7.2 8 7.2C7.55817 7.2 7.2 7.55817 7.2 8V8.8C7.2 9.24183 7.55817 9.6 8 9.6C8.44183 9.6 8.8 9.24183 8.8 8.8V8.656C9.89198 8.25978 10.5434 7.13837 10.3467 5.99351C10.15 4.84865 9.1616 4.00901 8 4Z" />
</svg>
