<svg width="14" height="16" viewBox="0 0 14 16" xmlns="http://www.w3.org/2000/svg">
	<path fill-rule="evenodd" clip-rule="evenodd" d="M7 8.8C6.55127 8.8 6.1875 9.15817 6.1875 9.6V12C6.1875 12.4418 6.55127 12.8 7 12.8C7.44873 12.8 7.8125 12.4418 7.8125 12V9.6C7.8125 9.15817 7.44873 8.8 7 8.8ZM11.0625 5.6V4C11.0625 1.79086 9.24366 0 7 0C4.75634 0 2.9375 1.79086 2.9375 4V5.6C1.59131 5.6 0.5 6.67452 0.5 8V13.6C0.5 14.9255 1.59131 16 2.9375 16H11.0625C12.4087 16 13.5 14.9255 13.5 13.6V8C13.5 6.67452 12.4087 5.6 11.0625 5.6ZM4.5625 4C4.5625 2.67452 5.65381 1.6 7 1.6C8.34619 1.6 9.4375 2.67452 9.4375 4V5.6H4.5625V4ZM11.875 13.6C11.875 14.0418 11.5112 14.4 11.0625 14.4H2.9375C2.48877 14.4 2.125 14.0418 2.125 13.6V8C2.125 7.55817 2.48877 7.2 2.9375 7.2H11.0625C11.5112 7.2 11.875 7.55817 11.875 8V13.6Z" />
</svg>
