<svg width="112" height="112" viewBox="0 0 112 112" fill="none" xmlns="http://www.w3.org/2000/svg">
<path d="M83.7437 16.0002H28.4782C27.7849 16.0002 27.2222 16.5602 27.2222 17.2502V94.75C27.2222 95.44 27.7849 96 28.4782 96H83.7437C84.4371 96 84.9998 95.44 84.9998 94.75V17.2502C84.9998 16.5602 84.4371 16.0002 83.7437 16.0002Z" fill="#FD565F"/>
<path d="M33.6416 90.0737H64.8486L78.5797 77.5381V24.8887H33.6416V90.0737Z" fill="#FFFEFE"/>
<path d="M41.0493 16V28.5701C41.0493 29.264 41.6116 29.8271 42.3045 29.8271H69.9175C70.6104 29.8271 71.1727 29.264 71.1727 28.5701V16H41.0493Z" fill="#FEE072"/>
<path d="M45 22.4197H47.4691V24.8888H45V22.4197Z" fill="#FFFEFA"/>
<path d="M65.2466 22.4197H67.7157V24.8888H65.2466V22.4197Z" fill="#FFFEFA"/>
<path d="M66.4889 77.1167H79.0735L65.2305 89.5799V78.363C65.2305 77.6751 65.7943 77.1167 66.4889 77.1167Z" fill="#EBEBEB"/>
<path d="M42.5781 37.2341H71.5227V57.1753H42.5781V37.2341Z" fill="#EBEBEB"/>
<path d="M50.1294 63.407H63.9724V65.8996H50.1294V63.407Z" fill="#EBEBEB"/>
<path d="M66.4893 63.407H74.04V65.8996H66.4893V63.407Z" fill="#EBEBEB"/>
<path d="M46.354 70.8845H60.1971V73.3772H46.354V70.8845Z" fill="#EBEBEB"/>
<path d="M62.7139 70.8845H74.04V73.3772H62.7139V70.8845Z" fill="#EBEBEB"/>
<path d="M40.0615 78.3628H61.4553V80.8554H40.0615V78.3628Z" fill="#EBEBEB"/>
<path d="M49.938 22.4197H62.2836V24.8888H49.938V22.4197Z" fill="#FFFEFA"/>
<path d="M42.5308 49.6963L40.8394 59.2656C39.5145 66.7601 35.3849 73.4715 29.2862 78.0381L23.7654 82.1726L18.082 77.8608C12.0633 73.2953 7.9912 66.6302 6.67762 59.1969L5 49.6963L23.7654 39.7036L42.5308 49.6963Z" fill="#72DA63"/>
<path d="M21.3803 74.2124C16.3954 70.3863 13.0506 64.85 11.9634 58.6239L10.9258 52.6783L24.0122 45.6296L37.0985 52.6783L36.0485 58.6903C34.9501 64.974 31.562 70.5416 26.5077 74.3701L24.0308 76.2468L21.3803 74.2124Z" fill="#FDFEFC"/>
<path d="M23.5195 77.7284C23.2521 77.7284 22.9848 77.6431 22.7601 77.4725L18.5777 74.2974C13.8831 70.7322 10.7338 65.5738 9.70953 59.7706L8.47565 52.7731C8.38151 52.2387 8.64134 51.703 9.12083 51.4483L15.3982 48.1026L16.5794 50.3168L11.1066 53.2335L12.1823 59.334C13.0961 64.5125 15.9066 69.1164 20.0965 72.2978L23.5232 74.9008L26.827 72.4245C31.0747 69.2406 33.9215 64.6091 34.8441 59.3829L35.9311 53.2322L30.4558 50.313L31.637 48.0989L37.9156 51.4458C38.3951 51.7017 38.6549 52.2361 38.5608 52.7706L37.3156 59.8182C36.2813 65.6729 33.0918 70.8627 28.332 74.4291L24.2701 77.4738C24.0492 77.6444 23.7843 77.7284 23.5195 77.7284Z" fill="#9AF6A4"/>
<path d="M28.4945 49.0865L24.0095 46.7715L19.5283 49.0852L18.333 46.9153L23.4125 44.293C23.7859 44.0999 24.2343 44.0999 24.6077 44.293L29.691 46.9165L28.4945 49.0865Z" fill="#9AF6A4"/>
<path d="M22.5498 65.8765C22.5337 65.8765 22.5188 65.8765 22.5027 65.8765C22.1296 65.8617 21.7812 65.6826 21.5581 65.3868L17.8394 60.4782L19.8227 59.0057L22.6242 62.7031L30.2947 54.0247L32.1603 55.6408L23.4832 65.458C23.2464 65.7243 22.9068 65.8765 22.5498 65.8765Z" fill="#72DA63"/>
</svg>
