<svg width="16" height="16" viewBox="0 0 16 16" fill="none" xmlns="http://www.w3.org/2000/svg">
<path fill-rule="evenodd" clip-rule="evenodd" d="M8.70808 10.829C8.52006 11.0185 8.26412 11.125 7.99712 11.125C7.73012 11.125 7.47418 11.0185 7.28616 10.829L3.04043 6.58673C2.85299 6.3979 2.74849 6.14229 2.75002 5.87634C2.74849 5.61039 2.85299 5.35477 3.04043 5.16595C3.43099 4.77802 4.06177 4.77802 4.45233 5.16595L7.99712 8.70788L11.5419 5.16595C11.9325 4.77802 12.5633 4.77802 12.9538 5.16595C13.1434 5.35382 13.25 5.60956 13.25 5.87634C13.25 6.14312 13.1434 6.39886 12.9538 6.58673L8.70808 10.829Z" fill="#818285"/>
</svg>
