<svg width="16" height="16" viewBox="0 0 16 16" fill="none" xmlns="http://www.w3.org/2000/svg">
<path fill-rule="evenodd" clip-rule="evenodd" d="M8.7081 5.17096L12.9538 9.41327C13.1434 9.60114 13.25 9.85688 13.25 10.1237C13.25 10.3904 13.1434 10.6462 12.9538 10.834C12.5633 11.222 11.9325 11.222 11.5419 10.834L7.99714 7.29212L4.45235 10.834C4.06178 11.222 3.43101 11.222 3.04044 10.834C2.853 10.6452 2.74851 10.3896 2.75002 10.1237C2.74851 9.85771 2.853 9.6021 3.04044 9.41327L7.28618 5.17096C7.4742 4.98154 7.73014 4.875 7.99714 4.875C8.26414 4.875 8.52008 4.98154 8.7081 5.17096Z" fill="#818285"/>
</svg>
