<svg width="16" height="16" viewBox="0 0 16 16" fill="none" xmlns="http://www.w3.org/2000/svg">
<path fill-rule="evenodd" clip-rule="evenodd" d="M4.17096 7.29193L8.41327 3.0462C8.60114 2.85663 8.85688 2.75 9.12366 2.75C9.39044 2.75 9.64618 2.85663 9.83405 3.0462C10.222 3.43676 10.222 4.06754 9.83405 4.45811L6.29212 8.00289L9.83405 11.5477C10.222 11.9382 10.222 12.569 9.83405 12.9596C9.64523 13.147 9.38961 13.2515 9.12366 13.25C8.85771 13.2515 8.6021 13.147 8.41327 12.9596L4.17096 8.71386C3.98154 8.52583 3.875 8.26989 3.875 8.00289C3.875 7.7359 3.98154 7.47995 4.17096 7.29193Z" fill="#818285"/>
</svg>
