<svg width="16" height="16" viewBox="0 0 16 16" fill="none" xmlns="http://www.w3.org/2000/svg">
<path fill-rule="evenodd" clip-rule="evenodd" d="M11.829 7.29193L7.58673 3.0462C7.39886 2.85663 7.14312 2.75 6.87634 2.75C6.60956 2.75 6.35382 2.85663 6.16595 3.0462C5.77802 3.43676 5.77802 4.06754 6.16595 4.45811L9.70788 8.00289L6.16595 11.5477C5.77802 11.9382 5.77802 12.569 6.16595 12.9596C6.35477 13.147 6.61039 13.2515 6.87634 13.25C7.14229 13.2515 7.3979 13.147 7.58673 12.9596L11.829 8.71386C12.0185 8.52583 12.125 8.26989 12.125 8.00289C12.125 7.7359 12.0185 7.47995 11.829 7.29193Z" fill="#818285"/>
</svg>
