<svg width="16" height="16" viewBox="0 0 16 16" fill="none" xmlns="http://www.w3.org/2000/svg">
<path d="M1.7 7.99999H5.9C6.08565 7.99999 6.2637 7.92624 6.39497 7.79497C6.52625 7.66369 6.6 7.48564 6.6 7.29999V3.09999C6.6 2.91434 6.52625 2.73629 6.39497 2.60502C6.2637 2.47374 6.08565 2.39999 5.9 2.39999H1.7C1.51435 2.39999 1.3363 2.47374 1.20503 2.60502C1.07375 2.73629 1 2.91434 1 3.09999V7.29999C1 7.48564 1.07375 7.66369 1.20503 7.79497C1.3363 7.92624 1.51435 7.99999 1.7 7.99999ZM2.4 3.79999H5.2V6.59999H2.4V3.79999ZM8.7 5.19999H14.3C14.4857 5.19999 14.6637 5.12624 14.795 4.99497C14.9263 4.86369 15 4.68565 15 4.49999C15 4.31434 14.9263 4.13629 14.795 4.00502C14.6637 3.87374 14.4857 3.79999 14.3 3.79999H8.7C8.51435 3.79999 8.3363 3.87374 8.20503 4.00502C8.07375 4.13629 8 4.31434 8 4.49999C8 4.68565 8.07375 4.86369 8.20503 4.99497C8.3363 5.12624 8.51435 5.19999 8.7 5.19999ZM8.7 12.2H1.7C1.51435 12.2 1.3363 12.2737 1.20503 12.405C1.07375 12.5363 1 12.7143 1 12.9C1 13.0856 1.07375 13.2637 1.20503 13.395C1.3363 13.5262 1.51435 13.6 1.7 13.6H8.7C8.88565 13.6 9.0637 13.5262 9.19497 13.395C9.32625 13.2637 9.4 13.0856 9.4 12.9C9.4 12.7143 9.32625 12.5363 9.19497 12.405C9.0637 12.2737 8.88565 12.2 8.7 12.2ZM14.3 9.39999H1.7C1.51435 9.39999 1.3363 9.47374 1.20503 9.60502C1.07375 9.73629 1 9.91434 1 10.1C1 10.2856 1.07375 10.4637 1.20503 10.595C1.3363 10.7262 1.51435 10.8 1.7 10.8H14.3C14.4857 10.8 14.6637 10.7262 14.795 10.595C14.9263 10.4637 15 10.2856 15 10.1C15 9.91434 14.9263 9.73629 14.795 9.60502C14.6637 9.47374 14.4857 9.39999 14.3 9.39999ZM14.3 6.59999H8.7C8.51435 6.59999 8.3363 6.67374 8.20503 6.80502C8.07375 6.93629 8 7.11434 8 7.29999C8 7.48564 8.07375 7.66369 8.20503 7.79497C8.3363 7.92624 8.51435 7.99999 8.7 7.99999H14.3C14.4857 7.99999 14.6637 7.92624 14.795 7.79497C14.9263 7.66369 15 7.48564 15 7.29999C15 7.11434 14.9263 6.93629 14.795 6.80502C14.6637 6.67374 14.4857 6.59999 14.3 6.59999Z" fill="#818285"/>
</svg>
