<svg width="16" height="16" viewBox="0 0 16 16" fill="none" xmlns="http://www.w3.org/2000/svg">
<path fill-rule="evenodd" clip-rule="evenodd" d="M13.9637 3.76045C13.7967 3.59376 13.5693 3.5 13.3322 3.5C13.095 3.5 12.8677 3.59376 12.7007 3.76045L6.07438 10.3289L3.29045 7.56416C3.0569 7.34081 2.72072 7.25778 2.40855 7.34634C2.09639 7.4349 1.85566 7.6816 1.77705 7.9935C1.69845 8.30541 1.7939 8.63513 2.02746 8.85848L5.44288 12.2396C5.60989 12.4062 5.83722 12.5 6.07438 12.5C6.31154 12.5 6.53887 12.4062 6.70588 12.2396L13.9637 5.05477C14.1462 4.88808 14.25 4.65344 14.25 4.40761C14.25 4.16177 14.1462 3.92714 13.9637 3.76045Z" fill="#818285"/>
</svg>
