<svg width="16" height="16" viewBox="0 0 16 16" fill="none" xmlns="http://www.w3.org/2000/svg">
<path fill-rule="evenodd" clip-rule="evenodd" d="M9.17387 7.99926L12.7537 4.4272C13.0802 4.1007 13.0802 3.57134 12.7537 3.24484C12.4273 2.91834 11.898 2.91834 11.5715 3.24484L8 6.82523L4.42845 3.24484C4.102 2.91834 3.57271 2.91834 3.24626 3.24484C2.91981 3.57134 2.91981 4.1007 3.24626 4.4272L6.82613 7.99926L3.24626 11.5713C3.08865 11.7277 3 11.9405 3 12.1625C3 12.3845 3.08865 12.5973 3.24626 12.7537C3.40258 12.9113 3.61537 13 3.83736 13C4.05934 13 4.27213 12.9113 4.42845 12.7537L8 9.17329L11.5715 12.7537C11.7279 12.9113 11.9407 13 12.1626 13C12.3846 13 12.5974 12.9113 12.7537 12.7537C12.9113 12.5973 13 12.3845 13 12.1625C13 11.9405 12.9113 11.7277 12.7537 11.5713L9.17387 7.99926Z" fill="#818285"/>
</svg>
