<svg width="16" height="16" viewBox="0 0 16 16" fill="none" xmlns="http://www.w3.org/2000/svg">
<path fill-rule="evenodd" clip-rule="evenodd" d="M8 5C7.66863 5 7.4 5.26863 7.4 5.6V8C7.4 8.33137 7.66863 8.6 8 8.6C8.33137 8.6 8.6 8.33137 8.6 8V5.6C8.6 5.26863 8.33137 5 8 5ZM8.552 10.172C8.53887 10.1338 8.52071 10.0974 8.498 10.064L8.426 9.974C8.25346 9.80375 7.99544 9.75404 7.772 9.848C7.69929 9.87839 7.63232 9.921 7.574 9.974C7.46169 10.0872 7.39908 10.2405 7.4 10.4C7.40095 10.4784 7.41726 10.5559 7.448 10.628C7.50255 10.7787 7.62126 10.8974 7.772 10.952C7.91722 11.0162 8.08278 11.0162 8.228 10.952C8.37874 10.8974 8.49745 10.7787 8.552 10.628C8.58274 10.5559 8.59905 10.4784 8.6 10.4C8.60295 10.3601 8.60295 10.3199 8.6 10.28C8.58967 10.2417 8.57348 10.2053 8.552 10.172ZM8 2C4.68629 2 2 4.68629 2 8C2 11.3137 4.68629 14 8 14C11.3137 14 14 11.3137 14 8C14 6.4087 13.3679 4.88258 12.2426 3.75736C11.1174 2.63214 9.5913 2 8 2ZM8 12.8C5.34903 12.8 3.2 10.651 3.2 8C3.2 5.34903 5.34903 3.2 8 3.2C10.651 3.2 12.8 5.34903 12.8 8C12.8 9.27304 12.2943 10.4939 11.3941 11.3941C10.4939 12.2943 9.27304 12.8 8 12.8Z" fill="#818285"/>
</svg>
